SplineFontDB: 3.0
FontName: aqtrmns
FullName: AqTrmns
FamilyName: Trmns
Weight: Medium
Copyright: Copyright (C) 2016 Dimitar Toshkov Zhekov; Copyright (c) 2017 Anonrate

StartChar: exclam
Encoding: 33 33 4
Width: 500
VWidth: 0
Flags: HMW
LayerCount: 2
Back
Fore
SplineSet
225 156 m 25
 275 156 l 25
 275 31 l 25
 225 31 l 25
 225 156 l 25
225 619 m 29
 275 619 l 29
 275 219 l 25
 225 219 l 25
 225 619 l 29
EndSplineSet
Validated: 1
Comment: "Starting to think I may use the 32 pixel spacing rather than the 64 because it matches what I have doing for the rest of the puncuation..  Equals, Greater Than etc..  That is considered punctuation, no?"
EndChar

StartChar: quotedbl
Encoding: 34 34 5
Width: 500
VWidth: 0
Flags: HMW
LayerCount: 2
Back
Fore
SplineSet
312 672 m 25
 363 672 l 25
 363 484 l 25
 312 484 l 25
 312 672 l 25
137 672 m 25
 188 672 l 25
 188 484 l 25
 137 484 l 25
 137 672 l 25
EndSplineSet
Validated: 1
EndChar

StartChar: numbersign
Encoding: 35 35 6
Width: 500
VWidth: 0
Flags: HMW
LayerCount: 2
Back
Fore
SplineSet
190 370 m 29
 190 200 l 29
 310 200 l 29
 310 370 l 29
 190 370 l 29
140 570 m 29
 190 570 l 29
 190 420 l 29
 310 420 l 29
 310 570 l 29
 360 570 l 29
 360 420 l 29
 410 420 l 29
 410 370 l 29
 360 370 l 29
 360 200 l 29
 410 200 l 29
 410 150 l 29
 360 150 l 29
 360 0 l 29
 310 0 l 29
 310 150 l 29
 190 150 l 29
 190 0 l 21
 140 0 l 13
 140 150 l 29
 90 150 l 29
 90 200 l 29
 140 200 l 29
 140 370 l 29
 90 370 l 29
 90 420 l 29
 140 420 l 29
 140 570 l 29
EndSplineSet
Validated: 1
EndChar

StartChar: dollar
Encoding: 36 36 7
Width: 500
VWidth: 0
Flags: HMW
LayerCount: 2
Back
Fore
SplineSet
275 100 m 29
 325 100 l 29
 350 125 l 29
 350 225 l 29
 325 250 l 29
 275 250 l 29
 275 100 l 29
225 450 m 29
 175 450 l 29
 150 425 l 29
 150 325 l 29
 175 300 l 29
 225 300 l 29
 225 450 l 29
225 550 m 29
 275 550 l 29
 275 500 l 29
 350 500 l 29
 400 450 l 29
 400 400 l 29
 350 400 l 29
 350 425 l 29
 325 450 l 29
 275 450 l 29
 275 300 l 29
 350 300 l 29
 400 250 l 29
 400 100 l 29
 350 50 l 29
 275 50 l 29
 275 0 l 29
 225 0 l 29
 225 50 l 29
 150 50 l 29
 100 100 l 29
 100 150 l 29
 150 150 l 29
 150 125 l 29
 175 100 l 29
 225 100 l 29
 225 250 l 29
 150 250 l 29
 100 300 l 29
 100 450 l 29
 150 500 l 29
 225 500 l 29
 225 550 l 29
EndSplineSet
Validated: 1
EndChar

StartChar: percent
Encoding: 37 37 8
Width: 500
VWidth: 0
Flags: HMW
LayerCount: 2
Back
Fore
SplineSet
500 500 m 25
 0 0 l 25
 50 0 l 25
 500 450 l 25
 500 500 l 25
50 475 m 25
 75 500 l 25
 175 500 l 25
 200 475 l 25
 200 375 l 25
 175 350 l 25
 75 350 l 25
 50 375 l 25
 50 475 l 25
300 125 m 29
 325 150 l 29
 425 150 l 29
 450 125 l 29
 450 25 l 29
 425 0 l 29
 325 0 l 29
 300 25 l 29
 300 125 l 29
EndSplineSet
Validated: 9
EndChar

StartChar: ampersand
Encoding: 38 38 9
Width: 500
VWidth: 0
Flags: HMW
LayerCount: 2
Back
Fore
SplineSet
171 248 m 25
 121 198 l 25
 121 123 l 25
 146 98 l 25
 229 98 l 25
 279 148 l 25
 279 198 l 29
 221 248 l 25
 171 248 l 25
246 470 m 25
 171 470 l 25
 146 445 l 25
 146 370 l 25
 196 320 l 25
 221 320 l 25
 271 370 l 25
 271 445 l 25
 246 470 l 25
96 470 m 25
 146 520 l 25
 271 520 l 25
 321 470 l 25
 321 345 l 25
 254 278 l 25
 304 248 l 29
 354 298 l 29
 379 298 l 29
 379 248 l 29
 329 198 l 29
 329 148 l 25
 379 98 l 25
 379 48 l 25
 354 48 l 25
 304 98 l 25
 254 48 l 25
 121 48 l 25
 71 98 l 25
 71 223 l 25
 121 273 l 25
 146 273 l 25
 146 295 l 25
 96 345 l 25
 96 470 l 25
EndSplineSet
Validated: 1
Comment: "This one needs to be prettyfied.  I was having issues with it, so I'm going to come back to it."
EndChar

StartChar: quotesingle
Encoding: 39 39 10
Width: 500
VWidth: 0
Flags: HMW
LayerCount: 2
Back
Fore
SplineSet
231 672 m 25
 281 672 l 25
 281 497 l 29
 231 497 l 29
 231 672 l 25
EndSplineSet
Validated: 1
EndChar

StartChar: parenleft
Encoding: 40 40 11
Width: 500
VWidth: 0
Flags: HMW
LayerCount: 2
Back
Fore
SplineSet
287.5 -31 m 29
 162.5 109 l 29
 162.5 527 l 29
 287.5 667 l 29
 337.5 617 l 29
 212.5 477 l 29
 212.5 159 l 29
 337.5 19 l 29
 287.5 -31 l 29
EndSplineSet
Validated: 524289
Comment: "Needs to be less Fucky.."
EndChar

StartChar: parenright
Encoding: 41 41 12
Width: 500
VWidth: 0
Flags: HMW
LayerCount: 2
Back
Fore
SplineSet
212 667 m 29
 338 527 l 29
 338 109 l 29
 212 -31 l 29
 162 19 l 29
 288 159 l 29
 288 477 l 29
 162 617 l 29
 212 667 l 29
EndSplineSet
Validated: 1
Comment: "Needs to be less Fucky.."
EndChar

StartChar: asterisk
Encoding: 42 42 13
Width: 500
VWidth: 0
Flags: HMW
LayerCount: 2
Back
Fore
SplineSet
166 329 m 25
 66 429 l 25
 116 454 l 25
 191 379 l 17
 250 379 l 1
 325 454 l 9
 375 429 l 25
 275 329 l 25
 431 329 l 25
 431 279 l 25
 291 279 l 29
 392 179 l 25
 342 154 l 17
 266 229 l 1
 175 229 l 9
 100 154 l 25
 50 179 l 25
 150 279 l 25
 71 279 l 25
 71 329 l 25
 166 329 l 25
EndSplineSet
Validated: 1
Comment: "Needs to be more +ACIA-Pointy+ACIA in the center."
EndChar

StartChar: plus
Encoding: 43 43 14
Width: 500
VWidth: 0
Flags: HMW
LayerCount: 2
Back
Fore
SplineSet
231 491 m 25
 281 491 l 25
 281 341 l 25
 431 341 l 29
 431 291 l 29
 281 291 l 25
 281 141 l 25
 231 141 l 25
 231 291 l 25
 81 291 l 25
 81 341 l 25
 231 341 l 25
 231 491 l 25
EndSplineSet
Validated: 1
EndChar

StartChar: comma
Encoding: 44 44 15
Width: 500
VWidth: 0
Flags: HMWO
LayerCount: 2
Back
Fore
SplineSet
312.5 125 m 29
 312.5 0 l 29
 249.5 -62 l 29
 187.5 -62 l 29
 187.5 -31 l 29
 249.5 31 l 29
 249.5 125 l 29
 312.5 125 l 29
EndSplineSet
Validated: 1
Comment: "Meh.."
EndChar

StartChar: hyphen
Encoding: 45 45 16
Width: 500
VWidth: 0
Flags: HMW
LayerCount: 2
Back
Fore
SplineSet
62 341 m 29
 438 341 l 29
 438 279 l 29
 62 279 l 29
 62 341 l 29
EndSplineSet
Validated: 1
EndChar

StartChar: period
Encoding: 46 46 17
Width: 500
VWidth: 0
Flags: MW
LayerCount: 2
Back
Fore
SplineSet
219 125 m 29
 281 125 l 29
 281 0 l 29
 219 0 l 29
 219 125 l 29
EndSplineSet
Validated: 1
Comment: "When I think of a +ACIA-Period+ACIA, I think of it as being a dot, and when I say +ACIA-Dot+ACIA I mean as a square.  The default style of the period in Terminus is more so like a rectangle rather than a square.  So with that being said I have modified the period to look more +ACIA-Period+ACIA like and transformed it into a square.+AAoACgAA-There also appears to be a problem with this character.  Apparently the +ACIA-Advanced Width+ACIA needs to be 500 if I remember what it said correctly.+AAoACgAA-Actually apparently they all have that problem.  (I'm assuming just because I checked the previous one.  Makes sence though)"
Colour: ff8000
EndChar

StartChar: slash
Encoding: 47 47 18
Width: 500
VWidth: 0
Flags: HMW
LayerCount: 2
Back
Fore
SplineSet
141 0 m 25
 422 620 l 25
 360 620 l 25
 78 0 l 25
 141 0 l 25
EndSplineSet
Validated: 9
Comment: "Mostly happy with the results."
EndChar

StartChar: zero
Encoding: 48 48 19
Width: 500
VWidth: 0
Flags: HMW
LayerCount: 2
Back
Fore
SplineSet
375 93 m 25
 375 374 l 25
 125 155 l 25
 125 93 l 25
 156 62 l 25
 344 62 l 25
 375 93 l 25
125 529 m 25
 125 248 l 25
 375 467 l 25
 375 529 l 25
 344 560 l 25
 156 560 l 25
 125 529 l 25
63 560 m 25
 125 622 l 25
 375 622 l 25
 437 560 l 25
 437 62 l 25
 375 0 l 25
 125 0 l 25
 63 62 l 25
 63 560 l 25
EndSplineSet
Validated: 1
Comment: "Does it look stupid in middle?"
EndChar

StartChar: one
Encoding: 49 49 20
Width: 500
VWidth: 0
Flags: HMW
LayerCount: 2
Back
Fore
SplineSet
281 620 m 9
 281 62 l 25
 375 62 l 25
 375 0 l 25
 125 0 l 25
 125 62 l 25
 219 62 l 1
 219 495 l 1
 188 464 l 1
 126 495 l 5
 219 620 l 1
 281 620 l 9
EndSplineSet
Validated: 1
EndChar

StartChar: two
Encoding: 50 50 21
Width: 500
VWidth: 0
Flags: HMW
LayerCount: 2
Back
Fore
SplineSet
438 62 m 25
 438 0 l 25
 62 0 l 25
 62 78 l 25
 375 391 l 25
 375 527 l 29
 344 558 l 29
 156 558 l 29
 125 527 l 29
 125 402 l 29
 62 402 l 29
 62 558 l 29
 125 620 l 29
 375 620 l 29
 438 558 l 29
 438 359 l 25
 141 62 l 25
 438 62 l 25
EndSplineSet
Validated: 1
Comment: "Not liking how the one bottom curve is coming out.  If you can't see it, then it doesn't bother you.  :)"
EndChar

StartChar: three
Encoding: 51 51 22
Width: 500
VWidth: 0
Flags: HMW
LayerCount: 2
Back
Fore
SplineSet
344 280 m 25
 375 249 l 1
 375 93 l 25
 344 62 l 25
 156 62 l 25
 125 93 l 25
 125 155 l 25
 63 155 l 1
 63 62 l 1
 125 0 l 25
 375 0 l 25
 437 62 l 17
 437 280 l 1
 406 280 l 1
 406 342 l 1
 437 342 l 1
 437 560 l 9
 375 622 l 25
 125 622 l 25
 63 560 l 1
 63 467 l 1
 125 467 l 1
 125 529 l 1
 156 560 l 25
 344 560 l 25
 375 529 l 1
 375 373 l 1
 344 342 l 1
 156 342 l 9
 156 280 l 25
 344 280 l 25
EndSplineSet
Validated: 9
EndChar

StartChar: four
Encoding: 52 52 23
Width: 500
VWidth: 0
Flags: HMW
LayerCount: 2
Back
Fore
SplineSet
375 219 m 29
 125 219 l 29
 125 281 l 29
 375 531 l 29
 375 219 l 29
438 0 m 29
 438 625 l 29
 375 625 l 29
 62 312 l 29
 62 156 l 29
 375 156 l 29
 375 0 l 29
 438 0 l 29
EndSplineSet
Validated: 9
EndChar

StartChar: five
Encoding: 53 53 24
Width: 500
VWidth: 0
Flags: MW
LayerCount: 2
Back
Fore
SplineSet
438 625 m 29
 438 562 l 29
 125 562 l 29
 125 375 l 29
 375 375 l 29
 438 312 l 29
 438 62 l 29
 375 0 l 29
 125 0 l 29
 62 62 l 29
 62 125 l 29
 125 125 l 29
 125 94 l 29
 156 62 l 29
 359 62 l 29
 375 78 l 29
 375 281 l 29
 344 312 l 29
 62 312 l 29
 62 625 l 29
 438 625 l 29
EndSplineSet
Validated: 1
Comment: "The bottom left of the five looks a bit fat to me.  Notice how that some of the curves are 32 pixels apart and others 64.  I'm comfidient with my decision in have it be 32 pixels for all cases such as the top right of the 5, but for the top left, I'm not sure if I'm confidient in choosing 32 or 64.  I looked at the previous numbers as a reference, but none have really been like this.  But when I think about it the bottom on the number two may help with my final decision..  Yes both the two and one use 32 pixels so that is my final decision."
EndChar

StartChar: six
Encoding: 54 54 25
Width: 500
VWidth: 0
Flags: MW
LayerCount: 2
Back
Fore
SplineSet
375 0 m 29
 125 0 l 29
 62 62 l 29
 62 562 l 29
 125 625 l 29
 406 625 l 29
 406 562 l 29
 156 562 l 29
 125 531 l 29
 125 375 l 29
 375 375 l 29
 438 312 l 29
 438 62 l 29
 375 0 l 29
125 312 m 29
 125 94 l 29
 156 62 l 29
 344 62 l 29
 375 94 l 29
 375 281 l 29
 344 312 l 29
 125 312 l 29
EndSplineSet
Validated: 1
EndChar

StartChar: seven
Encoding: 55 55 26
Width: 500
VWidth: 0
Flags: HMW
LayerCount: 2
Back
Fore
SplineSet
125 438 m 29
 125 562 l 29
 375 562 l 29
 375 469 l 29
 219 219 l 29
 219 0 l 29
 281 0 l 29
 281 219 l 29
 438 469 l 29
 438 625 l 29
 62 625 l 29
 62 438 l 29
 125 438 l 29
EndSplineSet
Validated: 9
EndChar

StartChar: eight
Encoding: 56 56 27
Width: 500
VWidth: 0
Flags: MW
LayerCount: 2
Back
Fore
SplineSet
125 531 m 29
 125 375 l 29
 156 344 l 29
 344 344 l 29
 375 375 l 29
 375 531 l 29
 344 562 l 29
 156 562 l 29
 125 531 l 29
125 250 m 29
 125 94 l 29
 156 62 l 29
 344 62 l 29
 375 94 l 29
 375 250 l 29
 344 281 l 29
 156 281 l 29
 125 250 l 29
62 562 m 13
 125 625 l 29
 375 625 l 29
 438 562 l 21
 438 344 l 5
 406 344 l 5
 406 281 l 5
 438 281 l 5
 438 62 l 13
 375 0 l 29
 125 0 l 29
 62 62 l 21
 62 281 l 5
 94 281 l 5
 94 344 l 5
 62 344 l 5
 62 562 l 13
EndSplineSet
Validated: 1
EndChar

StartChar: nine
Encoding: 57 57 28
Width: 500
VWidth: 0
Flags: MW
LayerCount: 2
Back
Fore
SplineSet
125 625 m 29
 375 625 l 29
 438 562 l 29
 438 62 l 29
 375 0 l 29
 94 0 l 29
 94 62 l 29
 344 62 l 29
 375 94 l 29
 375 250 l 29
 125 250 l 29
 62 312 l 29
 62 562 l 29
 125 625 l 29
375 312 m 29
 375 531 l 29
 344 562 l 29
 156 562 l 29
 125 531 l 29
 125 344 l 29
 156 312 l 29
 375 312 l 29
EndSplineSet
Validated: 1
EndChar

StartChar: colon
Encoding: 58 58 29
Width: 500
VWidth: 0
Flags: MW
LayerCount: 2
Back
Fore
SplineSet
219 598 m 25
 281 598 l 25
 281 472 l 25
 219 472 l 25
 219 598 l 25
219 285 m 25
 281 285 l 25
 281 160 l 25
 219 160 l 25
 219 285 l 25
EndSplineSet
Validated: 1
EndChar

StartChar: semicolon
Encoding: 59 59 30
Width: 500
VWidth: 0
Flags: MW
LayerCount: 2
Back
Fore
SplineSet
281 125 m 29
 281 0 l 29
 219 -62 l 29
 156 -62 l 29
 156 -31 l 29
 219 31 l 29
 219 125 l 29
 281 125 l 29
219 438 m 25
 281 438 l 25
 281 312 l 25
 219 312 l 25
 219 438 l 25
EndSplineSet
Validated: 1
EndChar

StartChar: less
Encoding: 60 60 31
Width: 500
VWidth: 0
Flags: HMW
LayerCount: 2
Back
Fore
SplineSet
359 625 m 21
 62 328 l 5
 62 297 l 13
 359 0 l 29
 453 0 l 29
 125 312 l 29
 453 625 l 29
 359 625 l 21
EndSplineSet
Validated: 9
Comment: "Don't think I'm liking the right where the angle to the middle start..  (That probably didn't make sence...)"
EndChar

StartChar: equal
Encoding: 61 61 32
Width: 500
VWidth: 0
Flags: MW
LayerCount: 2
Back
Fore
SplineSet
62 250 m 29
 438 250 l 29
 438 188 l 29
 62 188 l 29
 62 250 l 29
62 438 m 25
 438 438 l 25
 438 375 l 25
 62 375 l 25
 62 438 l 25
EndSplineSet
Validated: 1
EndChar

StartChar: greater
Encoding: 62 62 33
Width: 500
VWidth: 0
Flags: MW
LayerCount: 2
Back
Fore
SplineSet
141 625 m 21
 438 328 l 5
 438 297 l 13
 141 0 l 29
 47 0 l 29
 375 312 l 29
 47 625 l 29
 141 625 l 21
EndSplineSet
Validated: 1
Comment: "Don't think I'm liking the left where the angle to the middle start..  (That probably didn't make sence...)"
EndChar

StartChar: question
Encoding: 63 63 34
Width: 500
VWidth: 0
Flags: MW
LayerCount: 2
Back
Fore
SplineSet
281 188 m 29
 281 250 l 25
 438 406 l 25
 438 562 l 25
 375 625 l 25
 125 625 l 25
 62 562 l 25
 62 406 l 25
 125 406 l 25
 125 531 l 25
 156 562 l 25
 344 562 l 25
 375 531 l 25
 375 438 l 25
 219 281 l 25
 219 188 l 25
 281 188 l 29
219 125 m 25
 281 125 l 25
 281 0 l 25
 219 0 l 25
 219 125 l 25
EndSplineSet
Validated: 9
Comment: "The +ACIA-Dot+ACIA should be 32 pixels spaced rather than 64.  Characters that are 64 pixels spaced, are punctuation."
EndChar

StartChar: at
Encoding: 64 64 35
Width: 500
VWidth: 0
Flags: MW
LayerCount: 2
Back
Fore
SplineSet
375 438 m 29
 250 438 l 29
 219 406 l 29
 219 219 l 29
 250 188 l 29
 344 188 l 29
 375 219 l 29
 375 438 l 29
438 62 m 29
 438 0 l 29
 94 0 l 29
 31 62 l 29
 31 562 l 29
 94 625 l 29
 375 625 l 29
 438 562 l 29
 438 125 l 29
 375 125 l 29
 375 156 l 29
 344 156 l 29
 344 125 l 29
 219 125 l 29
 156 188 l 29
 156 438 l 29
 219 500 l 29
 375 500 l 29
 375 531 l 29
 344 562 l 29
 125 562 l 29
 94 531 l 29
 94 94 l 29
 125 62 l 29
 438 62 l 29
EndSplineSet
Validated: 1
EndChar

StartChar: A
Encoding: 65 65 36
Width: 500
VWidth: 0
Flags: MW
LayerCount: 2
Back
Fore
SplineSet
125 531 m 29
 125 312 l 29
 375 312 l 29
 375 531 l 29
 344 562 l 29
 156 562 l 29
 125 531 l 29
62 562 m 29
 125 625 l 29
 375 625 l 29
 438 562 l 29
 438 0 l 29
 375 0 l 29
 375 250 l 29
 125 250 l 29
 125 0 l 29
 62 0 l 29
 62 562 l 29
EndSplineSet
Validated: 1
EndChar

StartChar: B
Encoding: 66 66 37
Width: 500
VWidth: 0
Flags: MW
LayerCount: 2
Back
Fore
SplineSet
125 312 m 25
 125 62 l 25
 344 62 l 25
 375 94 l 25
 375 250 l 25
 312 312 l 25
 125 312 l 25
125 562 m 25
 125 375 l 25
 312 375 l 29
 375 438 l 25
 375 531 l 25
 344 562 l 25
 125 562 l 25
62 625 m 25
 375 625 l 25
 438 562 l 25
 438 406 l 25
 375 344 l 25
 438 281 l 25
 438 62 l 25
 375 0 l 25
 62 0 l 25
 62 625 l 25
EndSplineSet
Validated: 1
Comment: "Before the 'B' was kind of hard to dis distinguis from the number '8'.  Well it's not anymore.  I have modified it a bit, mainly because I couldn't get it to come out the iriginal way.."
Colour: ff8000
EndChar

StartChar: C
Encoding: 67 67 38
Width: 500
VWidth: 0
Flags: MW
LayerCount: 2
Back
Fore
SplineSet
125 625 m 25
 375 625 l 25
 438 562 l 25
 438 469 l 25
 375 469 l 25
 375 531 l 25
 344 562 l 25
 156 562 l 25
 125 531 l 25
 125 94 l 25
 156 62 l 25
 344 62 l 25
 375 94 l 25
 375 156 l 29
 438 156 l 29
 438 62 l 25
 375 0 l 25
 125 0 l 25
 62 62 l 25
 62 562 l 25
 125 625 l 25
EndSplineSet
Validated: 1
EndChar

StartChar: D
Encoding: 68 68 39
Width: 500
VWidth: 0
Flags: MW
LayerCount: 2
Back
Fore
SplineSet
125 62 m 25
 297 62 l 25
 375 141 l 25
 375 484 l 29
 297 562 l 25
 125 562 l 25
 125 62 l 25
62 625 m 25
 328 625 l 25
 438 516 l 25
 438 109 l 25
 328 0 l 25
 62 0 l 25
 62 625 l 25
EndSplineSet
Validated: 1
EndChar

StartChar: E
Encoding: 69 69 40
Width: 500
VWidth: 0
Flags: MW
LayerCount: 2
Back
Fore
SplineSet
62 625 m 25
 438 625 l 25
 438 562 l 25
 125 562 l 25
 125 344 l 25
 344 344 l 25
 344 281 l 25
 125 281 l 17
 125 62 l 1
 438 62 l 5
 438 0 l 1
 125 0 l 9
 62 0 l 25
 62 625 l 25
EndSplineSet
Validated: 1
EndChar

StartChar: F
Encoding: 70 70 41
Width: 500
VWidth: 0
Flags: MW
LayerCount: 2
Back
Fore
SplineSet
62 625 m 29
 438 625 l 29
 438 562 l 29
 125 562 l 29
 125 344 l 29
 344 344 l 29
 344 281 l 29
 125 281 l 29
 125 0 l 29
 62 0 l 29
 62 625 l 29
EndSplineSet
Validated: 1
EndChar

StartChar: G
Encoding: 71 71 42
Width: 500
VWidth: 0
Flags: MW
LayerCount: 2
Back
Fore
SplineSet
62 562 m 29
 125 625 l 25
 375 625 l 25
 438 562 l 25
 438 469 l 25
 375 469 l 25
 375 531 l 25
 344 562 l 25
 156 562 l 25
 125 531 l 25
 125 94 l 25
 156 62 l 25
 344 62 l 25
 375 94 l 25
 375 281 l 25
 250 281 l 25
 250 344 l 25
 438 344 l 25
 438 62 l 25
 375 0 l 25
 125 0 l 25
 62 62 l 25
 62 562 l 29
EndSplineSet
Validated: 1
EndChar

StartChar: H
Encoding: 72 72 43
Width: 500
VWidth: 0
Flags: MW
LayerCount: 2
Back
Fore
SplineSet
62 625 m 29
 125 625 l 25
 125 344 l 25
 375 344 l 25
 375 625 l 25
 438 625 l 25
 438 0 l 25
 375 0 l 25
 375 281 l 25
 125 281 l 25
 125 0 l 25
 62 0 l 25
 62 625 l 29
EndSplineSet
Validated: 1
EndChar

StartChar: I
Encoding: 73 73 44
Width: 500
VWidth: 0
Flags: MW
LayerCount: 2
Back
Fore
SplineSet
156 625 m 29
 344 625 l 25
 344 562 l 25
 281 562 l 25
 281 62 l 25
 344 62 l 25
 344 0 l 25
 156 0 l 25
 156 62 l 25
 219 62 l 25
 219 562 l 25
 156 562 l 25
 156 625 l 29
EndSplineSet
Validated: 1
EndChar

StartChar: J
Encoding: 74 74 45
Width: 500
VWidth: 0
Flags: MW
LayerCount: 2
Back
Fore
SplineSet
281 625 m 29
 469 625 l 25
 469 562 l 25
 406 562 l 25
 406 62 l 25
 344 0 l 25
 125 0 l 25
 62 62 l 25
 62 188 l 25
 125 188 l 25
 125 94 l 25
 156 62 l 25
 312 62 l 25
 344 94 l 25
 344 562 l 25
 281 562 l 25
 281 625 l 29
EndSplineSet
Validated: 1
EndChar

StartChar: K
Encoding: 75 75 46
Width: 500
VWidth: 0
Flags: MW
LayerCount: 2
Back
Fore
SplineSet
62 625 m 25
 125 625 l 25
 125 344 l 25
 359 625 l 29
 438 625 l 17
 188 312 l 9
 438 0 l 25
 359 0 l 29
 125 281 l 25
 125 0 l 25
 62 0 l 25
 62 625 l 25
EndSplineSet
Validated: 1
Comment: "* My OCD is getting to me.  I don't like how the right side is +ACIA-Flush+ACIA vertically and the lowercase 'k' is +ACIA-Flushed' horizontally.+AAoA* The central(?) area of the 'K' is to fat..  I managed to work around this on the '+AH4A' and the results came out pleasantly.  I'm not able to exactly explain what I did, but what I did there should probably be done here as well.."
EndChar

StartChar: L
Encoding: 76 76 47
Width: 500
VWidth: 0
Flags: MW
LayerCount: 2
Back
Fore
SplineSet
62 625 m 29
 125 625 l 25
 125 62 l 25
 438 62 l 25
 438 0 l 25
 62 0 l 25
 62 625 l 29
EndSplineSet
Validated: 1
EndChar

StartChar: M
Encoding: 77 77 48
Width: 500
VWidth: 0
Flags: MW
LayerCount: 2
Back
Fore
SplineSet
47 0 m 29
 110 0 l 29
 110 516 l 21
 250 328 l 5
 391 516 l 13
 391 0 l 29
 454 0 l 29
 454 625 l 29
 391 625 l 29
 250 438 l 29
 110 625 l 29
 47 625 l 29
 47 0 l 29
EndSplineSet
Validated: 9
Comment: "* I have mixed feelings about this 'M'..  Specifically the central(?) area.."
EndChar

StartChar: N
Encoding: 78 78 49
Width: 500
VWidth: 0
Flags: MW
LayerCount: 2
Back
Fore
SplineSet
62 625 m 25
 125 625 l 25
 125 484 l 29
 375 234 l 29
 375 625 l 25
 438 625 l 25
 438 0 l 25
 375 0 l 25
 375 141 l 29
 125 391 l 29
 125 0 l 25
 62 0 l 25
 62 625 l 25
EndSplineSet
Validated: 1
Comment: "* I think I'm happy with the outcome of this 'N'.."
EndChar

StartChar: O
Encoding: 79 79 50
Width: 500
VWidth: 0
Flags: MW
LayerCount: 2
Back
Fore
SplineSet
125 531 m 29
 125 94 l 29
 156 62 l 29
 344 62 l 29
 375 94 l 29
 375 531 l 29
 344 562 l 29
 156 562 l 29
 125 531 l 29
62 562 m 29
 125 625 l 29
 375 625 l 29
 438 562 l 29
 438 62 l 29
 375 0 l 29
 125 0 l 29
 62 62 l 29
 62 562 l 29
EndSplineSet
Validated: 1
EndChar

StartChar: P
Encoding: 80 80 51
Width: 500
VWidth: 0
Flags: HMW
LayerCount: 2
Back
Fore
SplineSet
125 562 m 29
 344 562 l 29
 375 531 l 29
 375 344 l 29
 344 312 l 29
 125 312 l 29
 125 562 l 29
62 0 m 29
 125 0 l 29
 125 250 l 29
 375 250 l 29
 438 312 l 29
 438 562 l 29
 375 625 l 29
 62 625 l 29
 62 0 l 29
EndSplineSet
Validated: 9
EndChar

StartChar: Q
Encoding: 81 81 52
Width: 500
VWidth: 0
Flags: MW
LayerCount: 2
Back
Fore
SplineSet
109 531 m 25
 109 94 l 25
 140 62 l 25
 265 62 l 25
 234 94 l 25
 203 125 l 25
 296 125 l 25
 328 94 l 25
 343 78 l 21
 359 94 l 1
 359 531 l 9
 328 562 l 25
 140 562 l 25
 109 531 l 25
46 562 m 25
 109 625 l 25
 359 625 l 25
 421 562 l 25
 421 62 l 25
 390 31 l 25
 453 -31 l 25
 359 -31 l 25
 328 0 l 25
 109 0 l 25
 46 62 l 25
 46 562 l 25
EndSplineSet
Validated: 1
Comment: "* Maybe have the bottom right (Corner) actually look more like a corner, instead of how it looking like it's been +ACIA-raised+ACIA."
EndChar

StartChar: R
Encoding: 82 82 53
Width: 500
VWidth: 0
Flags: MW
LayerCount: 2
Back
Fore
SplineSet
125 562 m 25
 125 312 l 25
 344 312 l 25
 375 344 l 25
 375 531 l 25
 344 562 l 25
 125 562 l 25
62 625 m 25
 375 625 l 25
 438 562 l 25
 438 312 l 25
 375 250 l 25
 211 250 l 17
 438 0 l 9
 352 0 l 29
 125 250 l 25
 125 0 l 25
 62 0 l 25
 62 625 l 25
EndSplineSet
Validated: 1
Comment: "* Refer to 'K'"
EndChar

StartChar: S
Encoding: 83 83 54
Width: 500
VWidth: 0
Flags: MW
LayerCount: 2
Back
Fore
SplineSet
375 469 m 29
 375 531 l 25
 344 562 l 25
 156 562 l 25
 125 531 l 25
 125 375 l 25
 156 344 l 25
 375 344 l 25
 438 281 l 25
 438 62 l 25
 375 0 l 25
 125 0 l 25
 62 62 l 25
 62 156 l 25
 125 156 l 25
 125 94 l 25
 156 62 l 25
 344 62 l 25
 375 94 l 25
 375 250 l 25
 344 281 l 25
 125 281 l 25
 62 344 l 25
 62 562 l 25
 125 625 l 25
 375 625 l 25
 438 562 l 25
 438 469 l 25
 375 469 l 29
EndSplineSet
Validated: 1
EndChar

StartChar: T
Encoding: 84 84 55
Width: 500
VWidth: 0
Flags: MW
LayerCount: 2
Back
Fore
SplineSet
62 625 m 29
 438 625 l 25
 438 562 l 25
 281 562 l 25
 281 0 l 25
 219 0 l 25
 219 562 l 25
 62 562 l 25
 62 625 l 29
EndSplineSet
Validated: 1
EndChar

StartChar: U
Encoding: 85 85 56
Width: 500
VWidth: 0
Flags: MW
LayerCount: 2
Back
Fore
SplineSet
62 625 m 29
 125 625 l 25
 125 94 l 25
 156 62 l 25
 344 62 l 25
 375 94 l 25
 375 625 l 25
 438 625 l 25
 438 62 l 25
 375 0 l 25
 125 0 l 25
 62 62 l 25
 62 625 l 29
EndSplineSet
Validated: 1
EndChar

StartChar: V
Encoding: 86 86 57
Width: 500
VWidth: 0
Flags: MW
LayerCount: 2
Back
Fore
SplineSet
125 625 m 17
 188 312 l 1
 219 188 l 1
 250 94 l 1
 281 188 l 1
 312 312 l 1
 375 625 l 9
 438 625 l 1
 375 312 l 1
 344 188 l 1
 312 94 l 1
 266 0 l 5
 234 0 l 1
 188 94 l 1
 156 188 l 1
 125 312 l 1
 62 625 l 9
 125 625 l 17
EndSplineSet
Validated: 1
Comment: "* This 'V' is a slut..  Not to be dirty or anything..  Just not sure if I like it.."
EndChar

StartChar: W
Encoding: 87 87 58
Width: 500
VWidth: 0
Flags: MW
LayerCount: 2
Back
Fore
SplineSet
47 625 m 29
 110 625 l 29
 110 109 l 21
 250 297 l 5
 391 109 l 13
 391 625 l 29
 454 625 l 29
 454 0 l 29
 391 0 l 29
 250 188 l 29
 110 0 l 29
 47 0 l 29
 47 625 l 29
EndSplineSet
Validated: 1
Comment: "* Refer to 'M'+AAoA-NOTE: Upside down 'M'"
EndChar

StartChar: X
Encoding: 88 88 59
Width: 500
VWidth: 0
Flags: MW
LayerCount: 2
Back
Fore
SplineSet
125 625 m 29
 250 375 l 25
 375 625 l 25
 438 625 l 25
 312 312 l 25
 438 0 l 25
 375 0 l 25
 250 250 l 25
 125 0 l 25
 62 0 l 25
 188 312 l 25
 62 625 l 25
 125 625 l 29
EndSplineSet
Validated: 1
Comment: "This fucker looks like it has aids..+AAoA* Refer to '*'"
EndChar

StartChar: Y
Encoding: 89 89 60
Width: 500
VWidth: 0
Flags: MW
LayerCount: 2
Back
Fore
SplineSet
125 625 m 29
 250 344 l 25
 375 625 l 25
 438 625 l 25
 281 281 l 25
 281 0 l 25
 219 0 l 25
 219 281 l 25
 62 625 l 25
 125 625 l 29
EndSplineSet
Validated: 1
EndChar

StartChar: Z
Encoding: 90 90 61
Width: 500
VWidth: 0
Flags: MW
LayerCount: 2
Back
Fore
SplineSet
62 625 m 25
 438 625 l 25
 438 453 l 29
 125 140 l 29
 125 62 l 25
 438 62 l 25
 438 0 l 25
 62 0 l 25
 62 171 l 29
 375 484 l 29
 375 562 l 25
 62 562 l 25
 62 625 l 25
EndSplineSet
Validated: 1
Comment: "* What I did with the '+AH4A'..  Do it here too.  I don't like how everything isn't even...  (Look at bitmap if unsure what I mean)"
EndChar

StartChar: bracketleft
Encoding: 91 91 62
Width: 500
VWidth: 0
Flags: HMW
LayerCount: 2
Back
Fore
SplineSet
203 562 m 29
 359 562 l 29
 359 625 l 29
 141 625 l 29
 141 0 l 29
 359 0 l 29
 359 62 l 29
 203 62 l 29
 203 562 l 29
EndSplineSet
Validated: 9
EndChar

StartChar: backslash
Encoding: 92 92 63
Width: 500
VWidth: 0
Flags: MW
LayerCount: 2
Back
Fore
SplineSet
359 0 m 29
 78 625 l 29
 141 625 l 29
 422 0 l 29
 359 0 l 29
EndSplineSet
Validated: 1
EndChar

StartChar: bracketright
Encoding: 93 93 64
Width: 500
VWidth: 0
Flags: HMW
LayerCount: 2
Back
Fore
SplineSet
297 62 m 29
 141 62 l 29
 141 0 l 29
 359 0 l 29
 359 625 l 29
 141 625 l 29
 141 562 l 29
 297 562 l 29
 297 62 l 29
EndSplineSet
Validated: 9
EndChar

StartChar: asciicircum
Encoding: 94 94 65
Width: 500
VWidth: 0
Flags: HMW
LayerCount: 2
Back
Fore
SplineSet
250 688 m 29
 62 500 l 25
 156 500 l 25
 250 594 l 25
 344 500 l 25
 438 500 l 25
 250 688 l 29
EndSplineSet
Validated: 9
Comment: "There is something I wanted to say about this.. I'm sure of it."
EndChar

StartChar: underscore
Encoding: 95 95 66
Width: 500
VWidth: 0
Flags: MW
LayerCount: 2
Back
Fore
SplineSet
62 -31 m 29
 438 -31 l 29
 438 -94 l 29
 62 -94 l 29
 62 -31 l 29
EndSplineSet
Validated: 1
EndChar

StartChar: grave
Encoding: 96 96 67
Width: 500
VWidth: 0
Flags: HMW
LayerCount: 2
Back
Fore
SplineSet
141 781 m 29
 234 656 l 29
 328 656 l 29
 234 781 l 29
 141 781 l 29
EndSplineSet
Validated: 9
Comment: "* Do what I did with the '+AH4A'"
EndChar

StartChar: a
Encoding: 97 97 68
Width: 500
VWidth: 0
Flags: MW
LayerCount: 2
Back
Fore
SplineSet
375 219 m 25
 156 219 l 25
 125 188 l 25
 125 94 l 25
 156 62 l 25
 375 62 l 25
 375 219 l 25
94 438 m 25
 375 438 l 25
 438 375 l 25
 438 0 l 25
 125 0 l 25
 62 62 l 25
 62 219 l 25
 125 281 l 25
 375 281 l 25
 375 344 l 25
 344 375 l 25
 94 375 l 25
 94 438 l 25
EndSplineSet
Validated: 1
EndChar

StartChar: b
Encoding: 98 98 69
Width: 500
VWidth: 0
Flags: MW
LayerCount: 2
Back
Fore
SplineSet
125 62 m 25
 344 62 l 25
 375 94 l 25
 375 344 l 25
 344 375 l 25
 125 375 l 25
 125 62 l 25
62 625 m 29
 125 625 l 29
 125 438 l 25
 375 438 l 25
 438 375 l 25
 438 62 l 25
 375 0 l 25
 62 0 l 25
 62 625 l 29
EndSplineSet
Validated: 1
EndChar

StartChar: c
Encoding: 99 99 70
Width: 500
VWidth: 0
Flags: MW
LayerCount: 2
Back
Fore
SplineSet
125 438 m 29
 375 438 l 29
 438 375 l 29
 438 312 l 29
 375 312 l 29
 375 344 l 29
 344 375 l 29
 156 375 l 29
 125 344 l 29
 125 94 l 29
 156 62 l 29
 344 62 l 29
 375 94 l 29
 375 125 l 29
 438 125 l 29
 438 62 l 29
 375 0 l 29
 125 0 l 29
 62 62 l 29
 62 375 l 29
 125 438 l 29
EndSplineSet
Validated: 1
EndChar

StartChar: d
Encoding: 100 100 71
Width: 500
VWidth: 0
Flags: HMW
LayerCount: 2
Back
Fore
SplineSet
375 62 m 25
 156 62 l 25
 125 94 l 25
 125 344 l 25
 156 375 l 25
 375 375 l 25
 375 62 l 25
438 625 m 29
 375 625 l 29
 375 438 l 25
 125 438 l 25
 62 375 l 25
 62 62 l 25
 125 0 l 25
 438 0 l 25
 438 625 l 29
EndSplineSet
Validated: 9
EndChar

StartChar: e
Encoding: 101 101 72
Width: 500
VWidth: 0
Flags: MW
LayerCount: 2
Back
Fore
SplineSet
125 344 m 29
 125 250 l 29
 375 250 l 29
 375 344 l 29
 344 375 l 29
 156 375 l 29
 125 344 l 29
125 438 m 29
 375 438 l 29
 438 375 l 29
 438 188 l 29
 125 188 l 29
 125 94 l 29
 156 62 l 29
 375 62 l 29
 375 94 l 29
 438 94 l 29
 438 31 l 29
 406 0 l 29
 125 0 l 29
 62 62 l 29
 62 375 l 29
 125 438 l 29
EndSplineSet
Validated: 1
EndChar

StartChar: f
Encoding: 102 102 73
Width: 500
VWidth: 0
Flags: MW
LayerCount: 2
Back
Fore
SplineSet
187 438 m 29
 187 562 l 25
 250 625 l 25
 437 625 l 25
 437 562 l 25
 281 562 l 25
 250 531 l 25
 250 438 l 25
 375 438 l 25
 375 375 l 25
 250 375 l 25
 250 0 l 25
 187 0 l 25
 187 375 l 25
 62 375 l 25
 62 438 l 25
 187 438 l 29
EndSplineSet
Validated: 1
EndChar

StartChar: g
Encoding: 103 103 74
Width: 500
VWidth: 0
Flags: MW
LayerCount: 2
Back
Fore
SplineSet
375 375 m 25
 156 375 l 25
 125 344 l 25
 125 94 l 25
 156 62 l 25
 375 62 l 25
 375 375 l 25
438 -94 m 25
 375 -156 l 1
 94 -156 l 5
 94 -94 l 1
 344 -94 l 1
 375 -62 l 1
 375 0 l 9
 125 0 l 25
 62 62 l 25
 62 375 l 25
 125 438 l 25
 438 438 l 1
 438 -94 l 25
EndSplineSet
Validated: 1
EndChar

StartChar: h
Encoding: 104 104 75
Width: 500
VWidth: 0
Flags: MW
LayerCount: 2
Back
Fore
SplineSet
62 0 m 1
 62 625 l 1
 125 625 l 5
 125 438 l 1
 375 438 l 9
 438 375 l 25
 438 0 l 25
 375 0 l 25
 375 344 l 25
 344 375 l 25
 125 375 l 25
 125 0 l 25
 62 0 l 1
EndSplineSet
Validated: 1
EndChar

StartChar: i
Encoding: 105 105 76
Width: 500
VWidth: 0
Flags: MW
LayerCount: 2
Back
Fore
SplineSet
156 438 m 29
 281 438 l 25
 281 62 l 25
 344 62 l 25
 344 0 l 25
 156 0 l 25
 156 62 l 25
 219 62 l 25
 219 375 l 25
 156 375 l 25
 156 438 l 29
219 625 m 25
 281 625 l 25
 281 500 l 25
 219 500 l 25
 219 625 l 25
EndSplineSet
Validated: 1
EndChar

StartChar: j
Encoding: 106 106 77
Width: 500
VWidth: 0
Flags: MW
LayerCount: 2
Back
Fore
SplineSet
281 438 m 29
 406 438 l 25
 406 -94 l 25
 344 -156 l 25
 156 -156 l 25
 94 -94 l 25
 94 0 l 25
 156 0 l 25
 156 -62 l 25
 188 -94 l 25
 312 -94 l 25
 344 -62 l 25
 344 375 l 25
 281 375 l 25
 281 438 l 29
344 625 m 25
 406 625 l 25
 406 500 l 25
 344 500 l 25
 344 625 l 25
EndSplineSet
Validated: 1
EndChar

StartChar: k
Encoding: 107 107 78
Width: 500
VWidth: 0
Flags: MW
LayerCount: 2
Back
Fore
SplineSet
82 625 m 29
 144 625 l 29
 144 250 l 29
 332 438 l 29
 425 438 l 29
 207 219 l 29
 425 0 l 29
 332 0 l 29
 144 188 l 29
 144 0 l 29
 82 0 l 29
 82 625 l 29
EndSplineSet
Validated: 1
Comment: "I think I'm okay with this 'k'.."
EndChar

StartChar: l
Encoding: 108 108 79
Width: 500
VWidth: 0
Flags: MW
LayerCount: 2
Back
Fore
SplineSet
156 625 m 29
 281 625 l 25
 281 62 l 25
 344 62 l 25
 344 0 l 25
 156 0 l 25
 156 62 l 25
 219 62 l 25
 219 562 l 25
 156 562 l 25
 156 625 l 29
EndSplineSet
Validated: 1
EndChar

StartChar: m
Encoding: 109 109 80
Width: 500
VWidth: 0
Flags: MW
LayerCount: 2
Back
Fore
SplineSet
62 438 m 29
 375 438 l 25
 438 375 l 25
 438 0 l 25
 375 0 l 25
 375 344 l 25
 344 375 l 25
 281 375 l 25
 281 0 l 25
 219 0 l 25
 219 375 l 25
 125 375 l 25
 125 0 l 25
 62 0 l 25
 62 438 l 29
EndSplineSet
Validated: 1
EndChar

StartChar: n
Encoding: 110 110 81
Width: 500
VWidth: 0
Flags: MW
LayerCount: 2
Back
Fore
SplineSet
62 0 m 29
 62 438 l 29
 375 438 l 29
 438 375 l 29
 438 0 l 29
 375 0 l 29
 375 344 l 29
 344 375 l 29
 125 375 l 29
 125 0 l 29
 62 0 l 29
EndSplineSet
Validated: 1
EndChar

StartChar: o
Encoding: 111 111 82
Width: 500
VWidth: 0
Flags: MW
LayerCount: 2
Back
Fore
SplineSet
125 344 m 29
 125 94 l 29
 156 62 l 29
 344 62 l 29
 375 94 l 29
 375 344 l 29
 344 375 l 29
 156 375 l 29
 125 344 l 29
62 375 m 29
 125 438 l 29
 375 438 l 29
 438 375 l 29
 438 62 l 29
 375 0 l 29
 125 0 l 29
 62 62 l 29
 62 375 l 29
EndSplineSet
Validated: 1
EndChar

StartChar: p
Encoding: 112 112 83
Width: 500
VWidth: 0
Flags: HMW
LayerCount: 2
Back
Fore
SplineSet
125 375 m 29
 344 375 l 29
 375 344 l 29
 375 94 l 29
 344 62 l 29
 125 62 l 29
 125 375 l 29
62 -156 m 29
 125 -156 l 29
 125 0 l 29
 375 0 l 29
 438 62 l 29
 438 375 l 29
 375 438 l 29
 62 438 l 29
 62 -156 l 29
EndSplineSet
Validated: 9
EndChar

StartChar: q
Encoding: 113 113 84
Width: 500
VWidth: 0
Flags: MW
LayerCount: 2
Back
Fore
SplineSet
375 375 m 29
 156 375 l 29
 125 344 l 29
 125 94 l 29
 156 62 l 29
 375 62 l 29
 375 375 l 29
438 -156 m 29
 375 -156 l 29
 375 0 l 29
 125 0 l 29
 62 62 l 29
 62 375 l 29
 125 438 l 29
 438 438 l 29
 438 -156 l 29
EndSplineSet
Validated: 1
EndChar

StartChar: r
Encoding: 114 114 85
Width: 500
VWidth: 0
Flags: HMW
LayerCount: 2
Back
Fore
SplineSet
62 438 m 29
 62 0 l 25
 125 0 l 25
 125 281 l 25
 219 375 l 25
 438 375 l 25
 438 438 l 25
 188 438 l 25
 125 375 l 25
 125 438 l 25
 62 438 l 29
EndSplineSet
Validated: 9
Comment: "* For the top right of the 'r', I may decide to have it be more like an arc."
EndChar

StartChar: s
Encoding: 115 115 86
Width: 500
VWidth: 0
Flags: MW
LayerCount: 2
Back
Fore
SplineSet
125 438 m 29
 375 438 l 25
 438 375 l 25
 438 344 l 25
 344 344 l 25
 312 375 l 25
 156 375 l 25
 125 344 l 25
 125 281 l 25
 156 250 l 25
 375 250 l 25
 438 188 l 25
 438 62 l 25
 375 0 l 25
 125 0 l 25
 62 62 l 25
 62 94 l 25
 156 94 l 25
 188 62 l 25
 344 62 l 25
 375 94 l 25
 375 156 l 25
 344 188 l 25
 125 188 l 25
 62 250 l 25
 62 375 l 25
 125 438 l 29
EndSplineSet
Validated: 1
EndChar

StartChar: t
Encoding: 116 116 87
Width: 500
VWidth: 0
Flags: MW
LayerCount: 2
Back
Fore
SplineSet
188 625 m 29
 250 625 l 25
 250 438 l 25
 375 438 l 25
 375 375 l 25
 250 375 l 25
 250 94 l 25
 281 62 l 25
 438 62 l 25
 438 0 l 25
 250 0 l 25
 188 62 l 25
 188 375 l 25
 62 375 l 25
 62 438 l 25
 188 438 l 25
 188 625 l 29
EndSplineSet
Validated: 1
EndChar

StartChar: u
Encoding: 117 117 88
Width: 500
VWidth: 0
Flags: MW
LayerCount: 2
Back
Fore
SplineSet
438 438 m 29
 438 0 l 29
 125 0 l 29
 62 62 l 29
 62 438 l 29
 125 438 l 29
 125 94 l 29
 156 62 l 29
 375 62 l 29
 375 438 l 29
 438 438 l 29
EndSplineSet
Validated: 1
EndChar

StartChar: v
Encoding: 118 118 89
Width: 500
VWidth: 0
Flags: MW
LayerCount: 2
Back
Fore
SplineSet
125 438 m 29
 250 94 l 25
 375 438 l 25
 438 438 l 25
 266 0 l 25
 234 0 l 25
 62 438 l 25
 125 438 l 29
EndSplineSet
Validated: 1
Comment: "* Happyish with the results..+AAoA* This 'V' is a slut..  Not to be dirty or anything..  Just not sure if I like it..+AAoACgAA-Confusing I know.."
EndChar

StartChar: w
Encoding: 119 119 90
Width: 500
VWidth: 0
Flags: MW
LayerCount: 2
Back
Fore
SplineSet
62 438 m 29
 125 438 l 25
 125 94 l 25
 156 62 l 25
 219 62 l 25
 219 312 l 25
 281 312 l 25
 281 62 l 25
 344 62 l 25
 375 94 l 25
 375 438 l 25
 438 438 l 25
 438 62 l 25
 375 0 l 25
 125 0 l 25
 62 62 l 25
 62 438 l 29
EndSplineSet
Validated: 1
EndChar

StartChar: x
Encoding: 120 120 91
Width: 500
VWidth: 0
Flags: MW
LayerCount: 2
Back
Fore
SplineSet
125 438 m 29
 250 281 l 25
 375 438 l 25
 438 438 l 25
 312 219 l 25
 438 0 l 25
 375 0 l 25
 250 156 l 25
 125 0 l 25
 62 0 l 25
 188 219 l 25
 62 438 l 25
 125 438 l 29
EndSplineSet
Validated: 1
Comment: "Meh...+AAoA* Look at the bitmap..  Doesn't look the same.  Refer to (Possiblel) 'X', but definitly '+AH4A' and '*'"
EndChar

StartChar: y
Encoding: 121 121 92
Width: 500
VWidth: 0
Flags: MW
LayerCount: 2
Back
Fore
SplineSet
62 438 m 29
 125 438 l 25
 125 94 l 25
 156 62 l 25
 375 62 l 25
 375 438 l 25
 438 438 l 25
 438 -94 l 25
 375 -156 l 25
 94 -156 l 25
 94 -94 l 25
 344 -94 l 25
 375 -62 l 25
 375 0 l 25
 125 0 l 25
 62 62 l 25
 62 438 l 29
EndSplineSet
Validated: 1
EndChar

StartChar: z
Encoding: 122 122 93
Width: 500
VWidth: 0
Flags: MW
LayerCount: 2
Back
Fore
SplineSet
62 438 m 29
 438 438 l 29
 438 359 l 29
 156 78 l 29
 156 62 l 29
 438 62 l 29
 438 0 l 29
 62 0 l 29
 62 78 l 29
 344 359 l 29
 344 375 l 29
 62 375 l 29
 62 438 l 29
EndSplineSet
Validated: 1
Comment: "* Looks like there is a curve missing at the top right.+AAoA* Refer to 'Z'"
EndChar

StartChar: braceleft
Encoding: 123 123 94
Width: 500
VWidth: 0
Flags: MW
LayerCount: 2
Back
Fore
SplineSet
391 0 m 29
 266 0 l 29
 203 62 l 29
 203 281 l 29
 109 281 l 29
 109 344 l 29
 203 344 l 29
 203 562 l 29
 266 625 l 29
 391 625 l 29
 391 562 l 29
 297 562 l 29
 266 531 l 29
 266 359 l 29
 234 328 l 29
 234 297 l 29
 266 266 l 29
 266 94 l 29
 297 62 l 29
 391 62 l 29
 391 0 l 29
EndSplineSet
Validated: 1
EndChar

StartChar: bar
Encoding: 124 124 95
Width: 500
VWidth: 0
Flags: MW
LayerCount: 2
Back
Fore
SplineSet
219 625 m 25
 281 625 l 25
 281 0 l 25
 219 0 l 25
 219 625 l 25
EndSplineSet
Validated: 1
EndChar

StartChar: braceright
Encoding: 125 125 96
Width: 500
VWidth: 0
Flags: MW
LayerCount: 2
Back
Fore
SplineSet
109 625 m 29
 234 625 l 29
 297 562 l 29
 297 344 l 29
 391 344 l 29
 391 281 l 29
 297 281 l 29
 297 62 l 29
 234 0 l 29
 109 0 l 29
 109 62 l 29
 203 62 l 29
 234 94 l 29
 234 266 l 29
 266 297 l 29
 266 328 l 29
 234 359 l 29
 234 531 l 29
 203 562 l 29
 109 562 l 29
 109 625 l 29
EndSplineSet
Validated: 1
EndChar

StartChar: asciitilde
Encoding: 126 126 97
Width: 500
VWidth: 0
Flags: MW
LayerCount: 2
Back
Fore
SplineSet
62 500 m 25
 125 500 l 25
 125 578 l 25
 172 625 l 25
 297 500 l 25
 359 500 l 25
 438 578 l 25
 438 688 l 25
 375 688 l 25
 375 609 l 25
 328 562 l 25
 203 688 l 25
 141 688 l 29
 62 609 l 25
 62 500 l 25
EndSplineSet
Validated: 9
Comment: "This was a lot harder than it should have been..."
EndChar

